<svg width="16" height="16" viewBox="0 0 16 16" fill="none" xmlns="http://www.w3.org/2000/svg">
<g clip-path="url(#clip0_97_36)">
<path d="M14.6068 7.91078C15.5038 7.6072 16.0004 6.73131 16.0004 5.79913C16.0004 4.64981 15.0796 3.07495 13.0093 3.07495C8.65561 3.07495 8.05056 11.0551 3.86719 11.0551V12.7399C9.14557 12.7399 9.9854 4.84483 12.7042 4.84483C13.4644 4.84483 14.0182 5.52168 13.8452 6.24009C13.7058 6.81776 13.2191 7.05701 12.6969 7.14748C12.3293 7.21114 12.0564 7.52813 12.0564 7.9081V7.92151C12.0564 8.28138 12.2984 8.59836 12.643 8.67744C13.0981 8.78199 13.6795 9.02927 13.8452 9.59354C14.03 10.2215 13.5302 10.9077 12.7042 10.9077C11.8781 10.9077 11.3211 10.6886 10.7286 9.98625C10.4826 9.6954 10.0794 9.60158 9.73483 9.75773C9.19292 10.0023 9.05875 10.7181 9.46585 11.1563C10.474 12.2427 11.8117 12.7225 12.7929 12.7225C14.4825 12.7225 16.001 11.7193 16.001 10.0231C16.001 9.27053 15.5531 8.30618 14.6068 7.91145V7.91078Z" fill="url(#paint0_linear_97_36)"/>
<path d="M1.99271 8.89133C1.99271 6.393 4.67597 5.89105 5.48489 7.8412C5.65193 8.24463 6.10309 8.44166 6.50755 8.29356C6.95542 8.12937 7.17113 7.61 6.97383 7.16837C5.4474 3.74589 -0.00525747 4.57755 3.80484e-06 8.89736C0.00263444 10.9802 1.65007 12.6911 3.69276 12.74C3.75327 12.7414 3.81048 12.7414 3.86836 12.74V11.0553C3.03905 11.0553 1.99271 10.3087 1.99271 8.89133Z" fill="#1A1A1A"/>
</g>
<defs>
<linearGradient id="paint0_linear_97_36" x1="3.8403" y1="11.2365" x2="9.39472" y2="11.2365" gradientUnits="userSpaceOnUse">
<stop stop-color="#1A1A1A"/>
<stop offset="1" stop-color="#572FD9"/>
</linearGradient>
<clipPath id="clip0_97_36">
<rect width="16" height="16" fill="white"/>
</clipPath>
</defs>
</svg>
