<svg width="118" height="33" viewBox="0 0 118 33" fill="none" xmlns="http://www.w3.org/2000/svg">
<path d="M4.03209 11.0095C5.56363 11.0095 6.80441 12.2739 6.80441 13.8345V29.4937C6.80441 31.0543 5.56363 32.3187 4.03209 32.3187C2.50055 32.3187 1.25977 31.0543 1.25977 29.4937V13.8345C1.25977 12.2739 2.50055 11.0095 4.03209 11.0095Z" fill="white"/>
<path d="M27.7819 12.2326C29.1505 13.3856 29.8357 15.2991 29.8357 17.9694V29.4637C29.8357 31.0395 28.5819 32.317 27.0356 32.317C25.4892 32.317 24.2355 31.0395 24.2355 29.4637V19.3564C24.2355 18.2355 24.0892 17.375 23.7984 16.7767C23.2651 15.6822 22.2502 15.135 20.752 15.135C18.9112 15.135 17.6482 15.937 16.963 17.5391C16.6074 18.3864 16.4297 19.4678 16.4297 20.7849V29.6204C16.4297 31.1112 15.2444 32.3189 13.7814 32.3189H13.6092C12.1462 32.3189 10.9609 31.1112 10.9609 29.6204V13.7461C10.9609 12.2552 12.1462 11.0475 13.6092 11.0475C15.0722 11.0475 16.2574 12.2552 16.2574 13.7461V14.1574C16.9575 13.0629 17.6204 12.2741 18.2445 11.791C19.3649 10.9305 20.7854 10.5002 22.5039 10.5002C24.6559 10.5002 26.4171 11.0777 27.7856 12.2307L27.7819 12.2326Z" fill="white"/>
<path d="M31.5918 13.1892C31.5918 12.0928 32.464 11.2058 33.5382 11.2058H34.5067V8.01853C34.5067 6.49564 35.7179 5.26147 37.2124 5.26147C38.7069 5.26147 39.918 6.49564 39.918 8.01853V11.2058H41.3662C42.4422 11.2058 43.3126 12.0947 43.3126 13.1892C43.3126 14.2856 42.4403 15.1725 41.3662 15.1725H39.918V26.4329C39.918 27.3066 40.0254 27.8501 40.244 28.0652C40.4643 28.2822 40.9181 28.3785 41.4107 28.4124C44.3589 28.8087 43.6293 33.0075 40.7236 32.6094C38.1402 32.6999 36.3753 32.2451 35.429 31.2412C34.816 30.6034 34.5086 29.6183 34.5086 28.2898V15.1725H33.54C32.4641 15.1725 31.5936 14.2837 31.5936 13.1892H31.5918Z" fill="white"/>
<path d="M85.4 18.9052C87.9261 18.0503 89.3243 15.5839 89.3243 12.9589C89.3243 9.72253 86.7316 5.28784 80.9017 5.28784C68.642 5.28784 66.9383 27.7595 55.1582 27.7595V32.5036C70.0217 32.5036 72.3866 10.2717 80.0424 10.2717C82.1833 10.2717 83.7426 12.1777 83.2555 14.2006C82.8629 15.8273 81.4925 16.501 80.0221 16.7558C78.9868 16.935 78.2183 17.8276 78.2183 18.8976V18.9354C78.2183 19.9487 78.8998 20.8413 79.8702 21.064C81.1517 21.3584 82.7888 22.0547 83.2555 23.6437C83.7759 25.4119 82.3685 27.3443 80.0424 27.3443C77.7164 27.3443 76.1479 26.7272 74.4793 24.7495C73.7867 23.9305 72.6514 23.6663 71.681 24.106C70.155 24.7948 69.7773 26.8102 70.9236 28.0444C73.7626 31.1034 77.5294 32.4546 80.2924 32.4546C85.05 32.4546 89.3261 29.6296 89.3261 24.8533C89.3261 22.7341 88.065 20.0186 85.4 18.9071V18.9052Z" fill="url(#paint0_linear_95_2)"/>
<path d="M49.877 21.6662C49.877 14.6311 57.4328 13.2177 59.7106 18.7091C60.181 19.8452 61.4514 20.4 62.5904 19.9829C63.8515 19.5206 64.459 18.0581 63.9034 16.8145C59.6051 7.17704 44.2508 9.51894 44.2656 21.6832C44.273 27.5483 48.9121 32.3661 54.6642 32.5038C54.8345 32.5076 54.9957 32.5076 55.1586 32.5038V27.7597C52.8234 27.7597 49.877 25.6574 49.877 21.6662Z" fill="white"/>
<path d="M93.173 28.3071H93.2249C94.2786 28.3071 95.1342 29.179 95.1342 30.2527C95.1342 31.3265 94.2786 32.1983 93.2249 32.1983H93.173C92.1193 32.1983 91.2637 31.3265 91.2637 30.2527C91.2637 29.179 92.1193 28.3071 93.173 28.3071Z" fill="#572FD9"/>
<path d="M110.201 30.583C109.966 29.9452 109.958 29.2866 109.958 28.5921V22.0854C109.958 20.3757 109.364 19.2132 108.177 18.598C106.988 17.9809 105.629 17.6733 104.097 17.6733C102.565 17.6733 100.656 18.0187 99.4617 19.1736C99.4413 19.1925 99.4228 19.2113 99.4024 19.2302C99.382 19.251 99.3654 19.2698 99.3469 19.2906C98.7783 19.9322 98.7987 20.921 99.4024 21.54C100.027 22.176 101.041 22.176 101.667 21.54C102.556 20.6172 103.986 20.638 103.986 20.638C105.008 20.5587 106.745 21.1324 106.334 22.4439C106.04 23.3743 103.99 23.6385 103.184 23.7045C102.88 23.7309 102.577 23.7611 102.277 23.8121C101.147 23.9989 100.271 24.2744 99.645 24.6386C98.3153 25.418 97.6523 26.6805 97.6523 28.426C97.6523 29.7716 98.0635 30.8095 98.8913 31.5435C99.7172 32.2757 100.764 32.6418 102.032 32.6418C103.025 32.6418 103.917 32.4116 104.704 31.953C105.364 31.5605 105.945 31.0906 106.451 30.5339C106.688 33.4835 111.107 33.0211 110.205 30.5849L110.201 30.583ZM106.33 26.6786C106.305 27.9203 105.958 28.7752 105.286 29.2432C104.616 29.7112 103.884 29.9452 103.088 29.9452C102.588 29.9452 102.162 29.8055 101.812 29.5243C101.462 29.2413 101.286 28.7846 101.286 28.1524C101.286 27.441 101.573 26.9164 102.145 26.5767C102.484 26.3767 103.043 26.2068 103.819 26.0691L104.647 25.9124C105.062 25.8351 105.388 25.7501 105.627 25.6577C105.864 25.5671 106.097 25.4482 106.33 25.301V26.6786Z" fill="#572FD9"/>
<path d="M115.034 18.0127C116.053 18.0127 116.878 18.8543 116.878 19.8923V30.7582C116.878 31.7961 116.053 32.6377 115.034 32.6377C114.015 32.6377 113.189 31.7961 113.189 30.7582V19.8923C113.189 18.8543 114.015 18.0127 115.034 18.0127Z" fill="#572FD9"/>
<path d="M117.828 13.1519C116.315 13.6501 115.756 14.22 115.269 15.7599C115.195 15.992 114.877 15.992 114.802 15.7599C114.314 14.2181 113.754 13.6482 112.243 13.1519C112.015 13.0764 112.015 12.7518 112.243 12.6763C113.756 12.1782 114.315 11.6082 114.802 10.0684C114.877 9.83626 115.195 9.83626 115.269 10.0684C115.758 11.6101 116.317 12.18 117.828 12.6763C118.056 12.7518 118.056 13.0764 117.828 13.1519Z" fill="#572FD9"/>
<path d="M7.82852 4.4295C5.77289 5.10697 5.01176 5.88068 4.34692 7.97725C4.24691 8.2924 3.81356 8.2924 3.71356 7.97725C3.04872 5.88257 2.28943 5.10697 0.231953 4.4295C-0.0773176 4.3276 -0.0773176 3.88601 0.231953 3.78411C2.28758 3.10664 3.04872 2.33293 3.71356 0.23636C3.81356 -0.0787865 4.24691 -0.0787865 4.34692 0.23636C5.01176 2.33104 5.77104 3.10664 7.82852 3.78411C8.13779 3.88601 8.13779 4.3276 7.82852 4.4295Z" fill="white"/>
<defs>
<linearGradient id="paint0_linear_95_2" x1="54.5" y1="30" x2="67" y2="23.5" gradientUnits="userSpaceOnUse">
<stop stop-color="white"/>
<stop offset="1" stop-color="#572FD9"/>
</linearGradient>
</defs>
</svg>
